<?xml version="1.0" encoding="UTF-8" standalone="no"?>
<svg
   height="512px"
   id="Layer_1"
   style="enable-background:new 0 0 512 512;"
   version="1.1"
   viewBox="0 0 512 512"
   width="512px"
   xml:space="preserve"
   sodipodi:docname="calculinux.svg"
   inkscape:version="1.4.2 (ebf0e940d0, 2025-05-08)"
   xmlns:inkscape="http://www.inkscape.org/namespaces/inkscape"
   xmlns:sodipodi="http://sodipodi.sourceforge.net/DTD/sodipodi-0.dtd"
   xmlns="http://www.w3.org/2000/svg"
   xmlns:svg="http://www.w3.org/2000/svg"
   xmlns:rdf="http://www.w3.org/1999/02/22-rdf-syntax-ns#"
   xmlns:cc="http://creativecommons.org/ns#"
   xmlns:dc="http://purl.org/dc/elements/1.1/"><title
     id="title19">Calculinux</title><defs
     id="defs16" /><sodipodi:namedview
     id="namedview16"
     pagecolor="#ffffff"
     bordercolor="#cccccc"
     borderopacity="1"
     inkscape:showpageshadow="0"
     inkscape:pageopacity="1"
     inkscape:pagecheckerboard="0"
     inkscape:deskcolor="#d1d1d1"
     inkscape:zoom="2.0886633"
     inkscape:cx="178.58312"
     inkscape:cy="189.83433"
     inkscape:window-width="2256"
     inkscape:window-height="1438"
     inkscape:window-x="0"
     inkscape:window-y="0"
     inkscape:window-maximized="1"
     inkscape:current-layer="Layer_1" /><path
     d="M 512,256.204 C 512,114.571 397.429,0 256.202,0 114.579,0 0,114.571 0,256.204 0,397.429 114.579,512 256.202,512 397.429,512 512,397.429 512,256.204 Z"
     style="clip-rule:evenodd;fill:#4cbcdb;fill-rule:evenodd;fill-opacity:1"
     id="path1" /><rect
     height="428.32965"
     style="clip-rule:evenodd;fill:#324a5e;fill-rule:evenodd;stroke-width:0.88;stroke-dasharray:none"
     width="236.33713"
     x="107.2051"
     y="69.173309"
     id="rect1"
     transform="rotate(-6.5008451)" /><g
     id="g16"
     transform="matrix(0.87444572,-0.09964357,0.09964357,0.87444572,8.2228041,60.109257)"
     style="stroke-width:0.999881;stroke-dasharray:none"><path
       d="m 320.44168,434.42151 c 3.576,0 6.764,3.187 6.764,7.162 v 27.452 c 0,3.575 -3.188,6.763 -6.764,6.763 -27.056,0 -54.104,0 -81.159,0 -3.979,0 -6.764,-3.188 -6.764,-6.763 v -27.452 c 0,-3.976 2.784,-7.162 6.764,-7.162 27.056,0 54.104,0 81.159,0 z"
       style="clip-rule:evenodd;fill:#fd8469;fill-rule:evenodd;stroke-width:0.999881;stroke-dasharray:none"
       id="path2" /><path
       d="m 187.36185,278.70795 h 27.85 c 3.586,0 6.765,3.187 6.765,7.162 v 27.452 c 0,3.575 -3.179,6.763 -6.765,6.763 h -27.85 c -3.576,0 -6.755,-3.188 -6.755,-6.763 v -27.452 c 0,-3.975 3.179,-7.162 6.755,-7.162 z"
       style="clip-rule:evenodd;fill:#ffd05b;fill-rule:evenodd;stroke-width:0.999881;stroke-dasharray:none"
       id="path3" /><path
       d="m 347.06965,278.70795 h 27.446 c 3.98,0 7.159,3.187 7.159,7.162 v 27.452 c 0,3.575 -3.179,6.763 -7.159,6.763 h -27.446 c -3.586,0 -6.765,-3.188 -6.765,-6.763 v -27.452 c 0,-3.975 3.179,-7.162 6.765,-7.162 z"
       style="clip-rule:evenodd;fill:#fd8469;fill-rule:evenodd;stroke-width:0.999881;stroke-dasharray:none"
       id="path4" /><path
       d="m 187.17735,329.79651 h 27.455 c 3.972,0 6.764,3.188 6.764,6.765 v 27.849 c 0,3.585 -2.792,6.764 -6.764,6.764 h -27.455 c -3.979,0 -6.764,-3.179 -6.764,-6.764 v -27.849 c 0,-3.578 2.785,-6.765 6.764,-6.765 z"
       style="clip-rule:evenodd;fill:#ffffff;fill-rule:evenodd;stroke-width:0.999881;stroke-dasharray:none"
       id="path5" /><path
       d="m 240.61311,329.79651 h 27.45 c 3.576,0 6.764,3.188 6.764,6.765 v 27.849 c 0,3.585 -3.188,6.764 -6.764,6.764 h -27.45 c -3.977,0 -7.163,-3.179 -7.163,-6.764 v -27.849 c 0,-3.578 3.186,-6.765 7.163,-6.765 z"
       style="clip-rule:evenodd;fill:#ffffff;fill-rule:evenodd;stroke-width:0.999881;stroke-dasharray:none"
       id="path6" /><path
       d="m 293.63588,329.79651 h 27.85 c 3.586,0 6.765,3.188 6.765,6.765 v 27.849 c 0,3.585 -3.179,6.764 -6.765,6.764 h -27.85 c -3.576,0 -6.755,-3.179 -6.755,-6.764 v -27.849 c 0,-3.578 3.179,-6.765 6.755,-6.765 z"
       style="clip-rule:evenodd;fill:#ffffff;fill-rule:evenodd;stroke-width:0.999881;stroke-dasharray:none"
       id="path7" /><path
       d="m 347.06965,329.79651 h 27.446 c 3.98,0 7.159,3.188 7.159,6.765 v 27.849 c 0,3.585 -3.179,6.764 -7.159,6.764 h -27.446 c -3.586,0 -6.765,-3.179 -6.765,-6.764 v -27.849 c 0,-3.578 3.179,-6.765 6.765,-6.765 z"
       style="clip-rule:evenodd;fill:#ffffff;fill-rule:evenodd;stroke-width:0.999881;stroke-dasharray:none"
       id="path8" /><path
       d="m 187.08427,382.31651 h 27.455 c 3.972,0 6.764,3.178 6.764,6.756 v 27.85 c 0,3.58 -2.792,6.763 -6.764,6.763 h -27.455 c -3.979,0 -6.764,-3.183 -6.764,-6.763 v -27.85 c 0,-3.578 2.785,-6.756 6.764,-6.756 z"
       style="clip-rule:evenodd;fill:#ffffff;fill-rule:evenodd;stroke-width:0.999881;stroke-dasharray:none"
       id="path9" /><path
       d="m 240.42696,382.31651 h 27.45 c 3.576,0 6.764,3.178 6.764,6.756 v 27.85 c 0,3.58 -3.188,6.763 -6.764,6.763 h -27.45 c -3.977,0 -7.163,-3.183 -7.163,-6.763 v -27.85 c 0,-3.578 3.186,-6.756 7.163,-6.756 z"
       style="clip-rule:evenodd;fill:#ffffff;fill-rule:evenodd;stroke-width:0.999881;stroke-dasharray:none"
       id="path10" /><path
       d="m 345.54873,434.42951 h 27.85 c 3.586,0 6.765,3.178 6.765,6.756 v 27.85 c 0,3.58 -3.179,6.763 -6.765,6.763 h -27.85 c -3.576,0 -6.755,-3.183 -6.755,-6.763 v -27.85 c 0,-3.578 3.179,-6.756 6.755,-6.756 z"
       style="clip-rule:evenodd;fill:#ffffff;fill-rule:evenodd;stroke-width:0.999881;stroke-dasharray:none"
       id="path11" /><path
       d="m 186.71163,434.82851 h 27.455 c 3.972,0 6.764,2.779 6.764,6.764 v 27.446 c 0,3.981 -2.792,6.76 -6.764,6.76 h -27.455 c -3.979,0 -6.764,-2.778 -6.764,-6.76 v -27.446 c 0,-3.985 2.785,-6.764 6.764,-6.764 z"
       style="clip-rule:evenodd;fill:#ffffff;fill-rule:evenodd;stroke-width:0.999881;stroke-dasharray:none"
       id="path12" /><path
       d="m 134.13158,278.90817 h 27.85 c 3.586,0 6.765,3.187 6.765,7.162 v 27.452 c 0,3.575 -3.179,6.763 -6.765,6.763 h -27.85 c -3.576,0 -6.755,-3.188 -6.755,-6.763 v -27.452 c 0,-3.975 3.179,-7.162 6.755,-7.162 z"
       style="clip-rule:evenodd;fill:#ffd05b;fill-rule:evenodd;stroke-width:0.999881;stroke-dasharray:none"
       id="path3-6" /><path
       d="m 134.14058,329.99673 h 27.455 c 3.972,0 6.764,3.188 6.764,6.765 v 27.849 c 0,3.585 -2.792,6.764 -6.764,6.764 h -27.455 c -3.979,0 -6.764,-3.179 -6.764,-6.764 v -27.849 c 0,-3.578 2.785,-6.765 6.764,-6.765 z"
       style="clip-rule:evenodd;fill:#ffffff;fill-rule:evenodd;stroke-width:0.999881;stroke-dasharray:none"
       id="path5-7" /><path
       d="m 134.14058,382.51673 h 27.455 c 3.972,0 6.764,3.178 6.764,6.756 v 27.85 c 0,3.58 -2.792,6.763 -6.764,6.763 h -27.455 c -3.979,0 -6.764,-3.183 -6.764,-6.763 v -27.85 c 0,-3.578 2.785,-6.756 6.764,-6.756 z"
       style="clip-rule:evenodd;fill:#ffffff;fill-rule:evenodd;stroke-width:0.999881;stroke-dasharray:none"
       id="path9-5" /><path
       d="m 134.14058,435.02873 h 27.455 c 3.972,0 6.764,2.779 6.764,6.764 v 27.446 c 0,3.981 -2.792,6.76 -6.764,6.76 h -27.455 c -3.979,0 -6.764,-2.778 -6.764,-6.76 v -27.446 c 0,-3.985 2.785,-6.764 6.764,-6.764 z"
       style="clip-rule:evenodd;fill:#ffffff;fill-rule:evenodd;stroke-width:0.999881;stroke-dasharray:none"
       id="path12-3" /><path
       d="m 241.00011,279.54629 h 27.45 c 3.576,0 6.764,2.779 6.764,6.764 v 27.446 c 0,3.981 -3.188,6.76 -6.764,6.76 h -27.44999 c -3.977,0 -7.16301,-2.778 -7.16301,-6.76 v -27.446 c 0,-3.985 3.18601,-6.764 7.163,-6.764 z"
       style="clip-rule:evenodd;fill:#ffffff;fill-rule:evenodd;stroke-width:0.999881;stroke-dasharray:none"
       id="path13" /><path
       d="m 293.82938,279.11495 h 27.85 c 3.586,0 6.765,2.779 6.765,6.764 v 27.446 c 0,3.981 -3.179,6.76 -6.765,6.76 h -27.85 c -3.576,0 -6.755,-2.778 -6.755,-6.76 v -27.446 c 0,-3.985 3.179,-6.764 6.755,-6.764 z"
       style="clip-rule:evenodd;fill:#ffffff;fill-rule:evenodd;stroke-width:0.999881;stroke-dasharray:none"
       id="path14" /><path
       d="m 293.36165,423.86214 c -3.981,0 -6.76,-3.179 -6.76,-7.159 v -27.446 c 0,-3.586 2.778,-6.765 6.76,-6.765 26.652,0 53.31,0 79.966,0 3.578,0 6.756,3.179 6.756,6.765 v 27.446 c 0,3.98 -3.178,7.159 -6.756,7.159 -26.656,0 -53.314,0 -79.966,0 z"
       style="clip-rule:evenodd;fill:#f9b54c;fill-rule:evenodd;stroke-width:0.999881;stroke-dasharray:none"
       id="path15" /></g><rect
     height="204.12267"
     style="clip-rule:evenodd;fill:#000000;fill-rule:evenodd;stroke-width:0.88;stroke-dasharray:none"
     width="204.12267"
     x="123.31233"
     y="84.663986"
     id="rect15"
     transform="rotate(-6.5008451)" /><text
     xml:space="preserve"
     style="font-style:normal;font-variant:normal;font-weight:bold;font-stretch:normal;font-size:56.3267px;font-family:Consolas;-inkscape-font-specification:'Consolas Bold';text-align:start;writing-mode:lr-tb;direction:ltr;text-anchor:start;fill:#ffffff;fill-opacity:1;stroke-width:0.88;stroke-dasharray:none"
     x="135.69298"
     y="133.722"
     id="text16"
     transform="rotate(-6.5008451)"><tspan
       sodipodi:role="line"
       x="135.69298"
       y="133.722"
       id="tspan18"
       style="stroke-width:0.88">#&gt; </tspan></text><metadata
     id="metadata19"><rdf:RDF><cc:Work
         rdf:about=""><cc:license
           rdf:resource="https://creativecommons.org/licenses/by-sa/3.0/deed.en" /><dc:title>Calculinux</dc:title><dc:creator><cc:Agent><dc:title>Boca Tutor, modified by Ben Klopfenstein</dc:title></cc:Agent></dc:creator><dc:date>2025</dc:date><dc:source>https://commons.wikimedia.org/wiki/File:Calculator_icon.svg</dc:source></cc:Work><cc:License
         rdf:about="http://creativecommons.org/licenses/by-sa/4.0/"><cc:permits
           rdf:resource="http://creativecommons.org/ns#Reproduction" /><cc:permits
           rdf:resource="http://creativecommons.org/ns#Distribution" /><cc:requires
           rdf:resource="http://creativecommons.org/ns#Notice" /><cc:requires
           rdf:resource="http://creativecommons.org/ns#Attribution" /><cc:permits
           rdf:resource="http://creativecommons.org/ns#DerivativeWorks" /><cc:requires
           rdf:resource="http://creativecommons.org/ns#ShareAlike" /></cc:License></rdf:RDF></metadata></svg>
